<?xml version="1.0"?>
<svg xmlns="http://www.w3.org/2000/svg" xmlns:xlink="http://www.w3.org/1999/xlink" xmlns:svgjs="http://svgjs.com/svgjs" version="1.1" width="512" height="512" x="0" y="0" viewBox="0 0 384 384" style="enable-background:new 0 0 512 512" xml:space="preserve" class=""><g>
<polygon xmlns="http://www.w3.org/2000/svg" style="" points="240.376,273.216 240.376,368.416 145.176,368.416 145.176,273.216 192.776,226.656 " fill="#ff4206" data-original="#00bfa5" class=""/>
<g xmlns="http://www.w3.org/2000/svg">
	<polygon style="" points="368.776,144.816 368.776,240.016 273.576,240.016 227.016,192.416 273.576,144.816  " fill="#ff4206" data-original="#fff3e0" class=""/>
	<polygon style="" points="111.976,144.816 158.536,192.416 111.976,240.016 16.776,240.016 16.776,144.816  " fill="#ff4206" data-original="#fff3e0" class=""/>
</g>
<polygon xmlns="http://www.w3.org/2000/svg" style="" points="240.376,16.416 240.376,111.616 192.776,158.176 145.176,111.616 145.176,16.416 " fill="#ff4206" data-original="#ff5252" class=""/>
<g xmlns="http://www.w3.org/2000/svg">
	<path style="" d="M180.816,169.2c3.112,3.04,7.152,4.56,11.184,4.56s8.08-1.52,11.184-4.56l47.584-46.528   c3.08-3.008,4.816-7.136,4.816-11.44V16c0-8.832-7.168-16-16-16h-95.168c-8.832,0-16,7.168-16,16v95.232   c0,4.304,1.736,8.432,4.816,11.44L180.816,169.2z M160.416,32h63.168v72.504L192,135.384l-31.584-30.88L160.416,32L160.416,32z" fill="#ff4206" data-original="#004d40" class=""/>
	<path style="" d="M180.816,214.8l-47.584,46.536c-3.08,3.008-4.816,7.136-4.816,11.44V368c0,8.832,7.168,16,16,16   h95.168c8.832,0,16-7.168,16-16v-95.224c0-4.304-1.736-8.432-4.816-11.44L203.184,214.8   C196.968,208.712,187.032,208.712,180.816,214.8z M223.584,352h-63.168v-72.496L192,248.616l31.584,30.888V352z" fill="#ff4206" data-original="#004d40" class=""/>
	<path style="" d="M16,255.576h95.224c4.304,0,8.432-1.736,11.44-4.816l46.536-47.576c6.08-6.216,6.08-16.16,0-22.376   l-46.536-47.584c-3.008-3.08-7.136-4.816-11.44-4.816H16c-8.832,0-16,7.168-16,16v95.168C0,248.416,7.168,255.576,16,255.576z    M32,160.416h72.496L135.384,192l-30.888,31.576H32V160.416z" fill="#ff4206" data-original="#004d40" class=""/>
	<path style="" d="M214.8,203.192l46.536,47.576c3.008,3.08,7.136,4.816,11.44,4.816H368c8.832,0,16-7.168,16-16   v-95.168c0-8.84-7.168-16-16-16h-95.224c-4.304,0-8.432,1.736-11.44,4.816L214.8,180.816   C208.72,187.032,208.72,196.976,214.8,203.192z M279.504,160.416H352v63.16h-72.496L248.616,192L279.504,160.416z" fill="#ff4206" data-original="#004d40" class=""/>
</g>
<g xmlns="http://www.w3.org/2000/svg">
</g>
<g xmlns="http://www.w3.org/2000/svg">
</g>
<g xmlns="http://www.w3.org/2000/svg">
</g>
<g xmlns="http://www.w3.org/2000/svg">
</g>
<g xmlns="http://www.w3.org/2000/svg">
</g>
<g xmlns="http://www.w3.org/2000/svg">
</g>
<g xmlns="http://www.w3.org/2000/svg">
</g>
<g xmlns="http://www.w3.org/2000/svg">
</g>
<g xmlns="http://www.w3.org/2000/svg">
</g>
<g xmlns="http://www.w3.org/2000/svg">
</g>
<g xmlns="http://www.w3.org/2000/svg">
</g>
<g xmlns="http://www.w3.org/2000/svg">
</g>
<g xmlns="http://www.w3.org/2000/svg">
</g>
<g xmlns="http://www.w3.org/2000/svg">
</g>
<g xmlns="http://www.w3.org/2000/svg">
</g>
</g></svg>
