<svg height="512pt" viewBox="0 0 511 512" width="512pt" xmlns="http://www.w3.org/2000/svg"><path d="m506.105469 246.394531-59.5-59.5c-2.808594-2.808593-6.613281-4.386719-10.585938-4.394531-.007812 0-360.519531-.5-360.519531-.5-3.976562 0-7.792969 1.578125-10.605469 4.394531l-60 60c-2.8125 2.8125-4.394531 6.628907-4.394531 10.605469v210c0 24.8125 20.1875 45 45 45h420c24.8125 0 45-20.1875 45-45v-210c0-3.976562-1.582031-7.792969-4.394531-10.605469zm0 0" fill="#e0f4fe"/><path d="m510.5 467c0 24.808594-20.191406 45-45 45h-210v-329.75c167.863281.222656 13.328125.027344 180.519531.25 3.96875.011719 7.78125 1.589844 10.589844 4.390625 65.027344 65.027344 60.816406 60.378906 62.300781 63.410156 2.300782 4.558594 1.589844-9.71875 1.589844 216.699219zm0 0" fill="#bcdcfe"/><path d="m508.910156 250.300781c-87 43.488281-58.503906 29.246094-253.410156 126.699219-238.472656-119.234375-185.878906-92.941406-253.410156-126.699219 1.492187-3.050781-2.699219 1.589844 62.800781-63.910156 2.769531-2.761719 6.554687-4.390625 10.628906-4.390625l360.5.5c3.96875.011719 7.78125 1.589844 10.589844 4.390625 65.027344 65.027344 60.816406 60.378906 62.300781 63.410156zm0 0" fill="#bcdcfe"/><path d="m508.910156 250.300781c-87 43.488281-58.503906 29.246094-253.410156 126.699219v-194.75c167.863281.222656 13.328125.027344 180.519531.25 3.96875.011719 7.78125 1.589844 10.589844 4.390625 65.027344 65.027344 60.816406 60.378906 62.300781 63.410156zm0 0" fill="#9bbada"/><path d="m450.5 55v224.5l-195 97.5-195-97.5v-224.5c0-30.328125 24.667969-55 55-55h280c30.328125 0 55 24.671875 55 55zm0 0" fill="#19c0ef"/><path d="m450.5 55v224.5l-195 97.5v-377h140c30.328125 0 55 24.671875 55 55zm0 0" fill="#159be1"/><path d="m195.5 91h120c8.28125 0 15-6.714844 15-15s-6.71875-15-15-15h-120c-8.285156 0-15 6.714844-15 15s6.714844 15 15 15zm0 0" fill="#165771"/><path d="m330.5 76c0 8.28125-6.722656 15-15 15h-60v-30h60c8.277344 0 15 6.71875 15 15zm0 0" fill="#0c3f60"/><path d="m375.5 121h-240c-8.285156 0-15 6.714844-15 15s6.714844 15 15 15h240c8.28125 0 15-6.714844 15-15s-6.71875-15-15-15zm0 0" fill="#165771"/><g fill="#0c3f60"><path d="m390.5 136c0 8.28125-6.722656 15-15 15h-120v-30h120c8.277344 0 15 6.71875 15 15zm0 0"/><path d="m375.5 181h-30c-8.285156 0-15 6.714844-15 15s6.714844 15 15 15h30c8.28125 0 15-6.714844 15-15s-6.71875-15-15-15zm0 0"/><path d="m375.5 241h-30c-8.285156 0-15 6.714844-15 15s6.714844 15 15 15h30c8.28125 0 15-6.714844 15-15s-6.71875-15-15-15zm0 0"/></g><path d="m300.5 197v157.5l-45 22.5-135-67.5v-112.5c0-8.28125 6.71875-15 15-15h150c8.277344 0 15 6.71875 15 15zm0 0" fill="#fcbe29"/><path d="m300.5 197v157.5l-45 22.5v-195h30c8.277344 0 15 6.71875 15 15zm0 0" fill="#fe9022"/><path d="m300.5 326v28.5l-45 22.5-135-67.5v-16l67.214844-33.605469c4.8125-2.410156 10.546875-2.050781 15.027344.933594zm0 0" fill="#1c6c94"/><path d="m300.5 326v28.5l-45 22.5v-81zm0 0" fill="#165771"/></svg>